<svg xmlns="http://www.w3.org/2000/svg" version="1.1" xmlns:xlink="http://www.w3.org/1999/xlink" xmlns:svgjs="http://svgjs.dev/svgjs" width="1500" height="1196" viewBox="0 0 1500 1196"><g transform="matrix(1,0,0,1,-0.906676130138635,-0.9229773028915815)"><svg viewBox="0 0 396 316" data-background-color="#001f3f" preserveAspectRatio="xMidYMid meet" height="1196" width="1500" xmlns="http://www.w3.org/2000/svg" xmlns:xlink="http://www.w3.org/1999/xlink"><g id="tight-bounds" transform="matrix(1,0,0,1,0.23988166887835405,0.24386356832252432)"><svg viewBox="0 0 395.52 315.51227286335495" height="315.51227286335495" width="395.52"><g><svg viewBox="0 0 395.52 315.51227286335495" height="315.51227286335495" width="395.52"><g transform="matrix(1,0,0,1,0,208.67480198903436)"><svg viewBox="0 0 395.52 106.8374708743206" height="106.8374708743206" width="395.52"><g id="textblocktransform"><svg viewBox="0 0 395.52 106.8374708743206" height="106.8374708743206" width="395.52" id="textblock"><g><svg viewBox="0 0 395.52 106.8374708743206" height="106.8374708743206" width="395.52"><g transform="matrix(1,0,0,1,0,0)"><svg width="395.52" viewBox="0.7383997973803604 -30.325568461640614 139.4557979904036 37.669665712656" height="106.8374708743206" data-palette-color="#f9f7f0"><path d="M18.61-16.32v0c-0.139-0.625-0.522-1.103-1.149-1.435-0.621-0.333-1.289-0.42-2.005-0.26v0c-1.432 0.319-2.432 1.395-3 3.228-0.561 1.839-0.612 3.787-0.155 5.843v0c0.352 1.581 0.968 2.94 1.85 4.076 0.881 1.136 1.971 1.952 3.269 2.448 1.299 0.496 2.697 0.578 4.194 0.245v0c1.106-0.246 2.119-0.7 3.036-1.362 0.92-0.655 1.633-1.316 2.141-1.982 0.509-0.66 1.054-1.279 1.635-1.859 0.573-0.585 1.114-0.934 1.621-1.047v0c0.657-0.146 1.281-0.012 1.873 0.403 0.599 0.42 0.961 0.913 1.087 1.479v0c0.139 0.625 0.113 1.399-0.078 2.322-0.186 0.915-0.577 1.935-1.174 3.058-0.598 1.117-1.346 2.191-2.243 3.224-0.897 1.033-2.088 1.988-3.573 2.865-1.479 0.875-3.1 1.509-4.863 1.901v0c-2.33 0.518-4.565 0.647-6.707 0.386-2.141-0.261-4.088-0.876-5.84-1.846-1.754-0.976-3.267-2.357-4.538-4.143-1.278-1.785-2.189-3.901-2.734-6.348v0c-1.076-4.835-0.478-8.98 1.792-12.436 2.272-3.449 5.754-5.696 10.446-6.739v0c2.388-0.531 4.687-0.619 6.897-0.265 2.21 0.355 4.07 1.116 5.579 2.283 1.516 1.165 2.464 2.6 2.843 4.306v0c0.439 1.972 0.178 3.901-0.782 5.787-0.958 1.893-2.482 3.072-4.571 3.538v0c-1.197 0.266-2.344 0.177-3.44-0.27-1.103-0.444-1.79-1.278-2.063-2.501v0c-0.126-0.566-0.025-1.418 0.302-2.557 0.327-1.138 0.444-1.919 0.35-2.342zM53.282-21.879l1.713 16.522c0.179 1.731 0.106 3.129-0.219 4.195-0.319 1.065-0.829 1.832-1.531 2.3-0.708 0.476-1.669 0.776-2.882 0.902v0c-1.797 0.186-3.15-0.159-4.059-1.037-0.901-0.872-1.495-2.523-1.78-4.953v0l-1.835-16.831-3.879 0.402c-1.916 0.199-3.387 0.043-4.412-0.467-1.018-0.511-1.608-1.542-1.768-3.094v0c-0.098-0.942 0.014-1.707 0.335-2.297 0.328-0.59 0.858-1.037 1.59-1.341 0.739-0.304 1.749-0.523 3.028-0.656v0l19.536-2.025c1.704-0.177 2.966-0.002 3.784 0.523 0.826 0.531 1.316 1.543 1.47 3.034v0c0.104 1.001-0.034 1.806-0.413 2.416-0.386 0.61-0.933 1.058-1.64 1.346-0.707 0.294-1.64 0.502-2.8 0.622v0zM73.809 0.976v0c-3.733 0.065-6.833-0.847-9.299-2.738-2.46-1.884-3.719-4.492-3.777-7.825v0c-0.063-3.606 1.087-6.48 3.45-8.622 2.363-2.135 5.441-3.236 9.233-3.301v0c3.579-0.063 6.213 0.525 7.902 1.762 1.689 1.244 2.552 2.966 2.591 5.165v0c0.008 0.433-0.039 0.847-0.138 1.243-0.1 0.402-0.259 0.795-0.48 1.178-0.227 0.391-0.527 0.749-0.901 1.076-0.381 0.327-0.813 0.624-1.295 0.893-0.482 0.268-1.058 0.479-1.729 0.63-0.671 0.145-1.39 0.224-2.156 0.238v0l-6.468 0.163c0.324 0.974 0.887 1.738 1.69 2.291 0.803 0.546 1.818 0.808 3.044 0.787v0c1.313-0.023 2.657-0.213 4.031-0.571v0c0.577-0.163 1.206-0.418 1.887-0.763 0.681-0.352 1.174-0.531 1.481-0.536v0c0.52-0.009 0.929 0.137 1.228 0.439 0.299 0.301 0.452 0.682 0.46 1.142v0c0.01 0.547-0.225 1.214-0.706 2.003-0.473 0.788-1.139 1.58-1.998 2.375-0.86 0.795-2.004 1.482-3.435 2.06-1.423 0.578-2.962 0.882-4.615 0.911zM70.46-12.097v0c2.113-0.064 3.259-0.097 3.439-0.101v0c0.46-0.008 0.792-0.291 0.996-0.847v0c0.146-0.403 0.213-0.954 0.201-1.654v0c-0.034-1.926-0.63-2.879-1.791-2.859v0c-0.433 0.008-0.853 0.242-1.258 0.702-0.399 0.467-0.744 1.127-1.035 1.979-0.292 0.845-0.476 1.772-0.552 2.78zM102.318-15.226v0c0.057-0.704-0.31-1.088-1.101-1.152v0c-0.578-0.047-1.122 0.234-1.633 0.841-0.51 0.601-0.923 1.373-1.24 2.318-0.323 0.937-0.526 1.924-0.611 2.96v0c-0.123 1.528 0.242 2.802 1.097 3.821 0.854 1.019 2.072 1.592 3.653 1.719v0c1.555 0.126 2.912 0.051 4.071-0.223v0c0.468-0.083 1.045-0.267 1.73-0.552 0.678-0.28 1.157-0.408 1.436-0.386v0c0.425 0.034 0.768 0.139 1.028 0.313 0.26 0.175 0.438 0.373 0.534 0.595 0.089 0.221 0.124 0.451 0.105 0.691v0c-0.035 0.432-0.223 0.942-0.565 1.53-0.341 0.581-0.841 1.183-1.5 1.805-0.666 0.622-1.426 1.182-2.283 1.682-0.85 0.5-1.884 0.885-3.103 1.154-1.219 0.269-2.486 0.351-3.802 0.245v0c-3.781-0.305-6.809-1.57-9.084-3.794-2.275-2.224-3.27-5.103-2.985-8.638v0c0.182-2.259 0.9-4.191 2.153-5.795 1.246-1.598 2.881-2.754 4.905-3.467 2.017-0.713 4.292-0.968 6.824-0.763v0c2.412 0.195 4.38 0.638 5.902 1.329 1.529 0.692 2.588 1.537 3.176 2.533 0.595 0.998 0.839 2.155 0.733 3.471v0c-0.047 0.578-0.208 1.164-0.482 1.757-0.275 0.586-0.676 1.166-1.204 1.738-0.521 0.573-1.252 1.013-2.193 1.318-0.948 0.311-2.034 0.418-3.257 0.319v0c-0.545-0.044-0.991-0.113-1.337-0.208-0.347-0.088-0.702-0.247-1.065-0.477-0.363-0.223-0.619-0.572-0.769-1.045-0.142-0.473-0.185-1.062-0.128-1.767v0c0.049-0.605 0.221-1.333 0.518-2.185 0.296-0.852 0.455-1.415 0.477-1.687zM128.524 2.086l1.474-8.361c0.312-1.712-0.194-2.688-1.519-2.931v0c-0.236-0.043-0.458-0.053-0.665-0.029-0.208 0.023-0.402 0.066-0.582 0.127-0.181 0.062-0.355 0.162-0.523 0.301-0.168 0.139-0.322 0.297-0.463 0.475-0.141 0.178-0.259 0.397-0.353 0.657-0.095 0.261-0.173 0.558-0.234 0.893v0l-0.905 4.958c-0.451 2.473-1.168 4.155-2.15 5.046-0.989 0.89-2.297 1.187-3.924 0.89v0c-1.686-0.307-2.832-1.005-3.44-2.091-0.607-1.093-0.691-2.843-0.252-5.251v0l3.42-19.248c0.34-1.863 1.038-3.148 2.096-3.857 1.064-0.707 2.347-0.924 3.849-0.65v0c1.6 0.292 2.747 0.843 3.439 1.654 0.686 0.81 0.845 2.221 0.478 4.235v0l-1.194 6.542c2.476-0.944 5.308-1.126 8.496-0.544v0c1.449 0.264 2.543 0.843 3.281 1.737 0.737 0.9 1.17 2.185 1.3 3.855 0.129 1.67-0.043 3.801-0.516 6.392v0c-0.242 1.325-0.473 2.465-0.695 3.42-0.214 0.95-0.44 1.817-0.677 2.601-0.238 0.783-0.492 1.415-0.763 1.894-0.277 0.478-0.57 0.875-0.878 1.192-0.302 0.318-0.661 0.54-1.077 0.667-0.409 0.122-0.847 0.188-1.317 0.197-0.469 0.009-1.019-0.044-1.648-0.158v0c-1.686-0.307-2.843-0.837-3.471-1.589-0.622-0.75-0.818-1.759-0.587-3.024z" opacity="1" transform="matrix(1,0,0,1,0,0)" fill="#f9f7f0" class="wordmark-text-0" data-fill-palette-color="primary" id="text-0"></path></svg></g></svg></g></svg></g></svg></g><g transform="matrix(1,0,0,1,82.12769997226819,0)"><svg viewBox="0 0 231.2646000554636 172.8630278746507" height="172.8630278746507" width="231.2646000554636"><g><svg xmlns="http://www.w3.org/2000/svg" xmlns:xlink="http://www.w3.org/1999/xlink" version="1.1" x="0" y="0" viewBox="1.1 13.399999999999999 97.80000000000001 73.10242952049867" enable-background="new 0 0 100 100" xml:space="preserve" height="172.8630278746507" width="231.2646000554636" class="icon-icon-0" data-fill-palette-color="accent" id="icon-0"><path d="M1.1 79.9v-4.1h5.4 0.3V33.2c0-3.4 2.7-6.1 6.1-6.1h23.7c-0.5 2-0.8 4.1-0.8 6.3 0 0.7 0 1.3 0.1 2H15v40.4h21.2v0.4c0 1.3 1 2.3 2.3 2.3h11.6c1.3 0 2.3-1 2.3-2.3v-0.4h21.2V58.5H79c1 0 2-0.1 3-0.2v17.4h0.3 5.4v4.1c0 3.7-3 6.7-6.7 6.7h-6.4H14.2 7.8C4.1 86.6 1.1 83.6 1.1 79.9zM40.8 33.4c0-11 9-20 20-20h18.1c11 0 20 9 20 20 0 11-9 20-20 20H65.4l-9.2 9.2c-0.6 0.6-1.7 0.2-1.7-0.7v-9.5C46.5 49.7 40.8 42.3 40.8 33.4zM52.7 33.5c0 1.1 0.2 2.1 0.6 3.1 0.4 1 1 1.9 1.8 2.7 0.8 0.8 1.7 1.4 2.7 1.8 1 0.4 2 0.6 3.1 0.6 1.1 0 2.1-0.2 3.1-0.6 1-0.4 1.9-1 2.7-1.8l0.6-0.6-2.6-2.6-0.6 0.6c-0.9 0.9-2 1.3-3.2 1.3-1.2 0-2.3-0.5-3.2-1.3-0.9-0.9-1.3-2-1.3-3.2s0.5-2.3 1.3-3.2c0.9-0.9 2-1.3 3.2-1.3 1.2 0 2.3 0.5 3.2 1.3l3.2 3.2 5.8 5.8c0.8 0.8 1.7 1.4 2.7 1.8 1 0.4 2 0.6 3.1 0.6 1.1 0 2.1-0.2 3.1-0.6 1-0.4 1.9-1 2.7-1.8 0.8-0.8 1.4-1.7 1.8-2.7 0.4-1 0.6-2 0.6-3.1 0-1.1-0.2-2.1-0.6-3.1-0.4-1-1-1.9-1.8-2.7-0.8-0.8-1.7-1.4-2.7-1.8-1-0.4-2-0.6-3.1-0.6-1.1 0-2.1 0.2-3.1 0.6-1 0.4-1.9 1-2.7 1.8l-0.7 0.7L75 31l0.7-0.7c0.9-0.9 2-1.3 3.2-1.3 1.2 0 2.3 0.5 3.2 1.3 0.9 0.9 1.3 2 1.3 3.2s-0.5 2.3-1.3 3.2c-0.9 0.9-2 1.3-3.2 1.3-1.2 0-2.3-0.5-3.2-1.3l-1.3-1.3-7.7-7.7c-0.8-0.8-1.7-1.4-2.7-1.8-1-0.4-2-0.6-3.1-0.6-1.1 0-2.1 0.2-3.1 0.6-1 0.4-1.9 1-2.7 1.8-0.8 0.8-1.4 1.7-1.8 2.7C52.9 31.4 52.7 32.4 52.7 33.5z" fill="#f9f7f0" data-fill-palette-color="accent"></path></svg></g></svg></g><g></g></svg></g><defs></defs></svg><rect width="395.52" height="315.51227286335495" fill="none" stroke="none" visibility="hidden"></rect></g></svg></g></svg>